<svg height="512pt" viewBox="-9 0 512 512.00003" width="512pt" xmlns="http://www.w3.org/2000/svg"><path d="m486.398438 401.066406v17.066406h-102.398438v-51.199218h68.265625c18.851563 0 34.132813 15.28125 34.132813 34.132812zm0 0" fill="#f57c00"/><path d="m460.800781 401.066406v17.066406h-76.800781v-51.199218h42.667969c18.851562 0 34.132812 15.28125 34.132812 34.132812zm0 0" fill="#ff9801"/><path d="m128 238.933594h-102.398438c-9.414062-.027344-17.039062-7.652344-17.066406-17.066406v-17.066407c.027344-9.414062 7.652344-17.039062 17.066406-17.066406h76.796876zm0 0" fill="#f29c1f"/><path d="m59.734375 187.734375v17.066406c0 4.710938-3.820313 8.53125-8.535156 8.53125-4.710938 0-8.53125-3.820312-8.53125-8.53125v-17.066406zm0 0" fill="#ff9801"/><path d="m60.160156 145.066406c11.625 25.414063 24.996094 49.992188 40.019532 73.558594 29.355468 51.453125 24.832031 109.394531 3.246093 162.644531-16.128906 39.59375-35.414062 79.019531-38.65625 122.195313h382.460938c-.910157-11.519532-2.824219-22.941406-5.714844-34.132813l-17.664063-51.199219c-5.035156-12.371093-10.328124-24.574218-15.277343-36.863281-1.960938-4.777343-3.667969-9.558593-5.289063-14.335937-16.808594-49.152344-18.175781-101.460938 8.535156-148.308594 15.023438-23.566406 28.394532-48.144531 40.019532-73.558594zm0 0" fill="#bfa885"/><path d="m93.867188 145.066406c9.515624 25.179688 20.582031 49.746094 33.132812 73.558594 24.304688 51.453125 20.558594 109.394531 2.679688 162.644531-13.34375 39.59375-29.3125 79.019531-32 122.195313h316.640624c-.746093-11.476563-2.324218-22.882813-4.71875-34.132813l-14.621093-51.199219c-4.171875-12.371093-8.53125-24.574218-12.644531-36.863281-1.628907-4.777343-3.039063-9.558593-4.386719-14.335937-13.917969-49.152344-15.042969-101.460938 7.066406-148.308594 12.546875-23.8125 23.605469-48.378906 33.117187-73.558594zm0 0" fill="#ffe0b2"/><path d="m447.230469 503.464844h-382.460938c2.929688-27.546875 10.066407-54.484375 21.160157-79.871094 6.058593 3.160156 14.679687 7.425781 25.429687 12.03125 46.628906 20.9375 96.957031 32.394531 148.054687 33.707031h2.304688c47.898438-1.128906 95.15625-11.320312 139.261719-30.035156 10.328125-4.183594 19.117187-8.191406 26.113281-11.691406l14.421875 41.726562c2.890625 11.191407 4.804687 22.613281 5.714844 34.132813zm0 0" fill="#6a1b9a"/><path d="m427.09375 427.605469c-6.996094 3.5-15.785156 7.507812-26.113281 11.691406-44.105469 18.714844-91.363281 28.90625-139.261719 30.035156h-2.304688c-51.097656-1.3125-101.425781-12.769531-148.054687-33.707031-10.75-4.605469-19.371094-8.871094-25.429687-12.03125 3.414062-8.617188 7.082031-17.238281 10.582031-25.769531 4.351562 2.132812 9.300781 4.351562 14.847656 6.742187 46.628906 20.933594 96.957031 32.390625 148.054687 33.707032h2.304688c47.898438-1.128907 95.15625-11.320313 139.261719-30.039063 5.804687-2.390625 11.09375-4.609375 15.871093-6.828125 2.390626 5.546875 4.695313 11.09375 7 16.726562zm0 0" fill="#bfa885"/><path d="m414.292969 503.464844h-316.585938c1.792969-23.078125 6.378907-45.859375 13.652344-67.839844 46.628906 20.9375 96.957031 32.394531 148.054687 33.707031h2.304688c47.898438-1.128906 95.15625-11.320312 139.261719-30.035156l8.621093 30.035156c2.386719 11.25 3.953126 22.660157 4.691407 34.132813zm0 0" fill="#9d27b0"/><path d="m273.066406 366.933594c0 9.425781-7.640625 17.066406-17.066406 17.066406s-17.066406-7.640625-17.066406-17.066406" fill="#bfa885"/><path d="m464.851562 145.066406h-417.703124c-5.214844 0-10.144532-2.382812-13.382813-6.46875-3.234375-4.085937-4.425781-9.429687-3.234375-14.507812l25.941406-102.671875c1.917969-7.578125 8.738282-12.886719 16.554688-12.882813h365.945312c7.816406-.003906 14.636719 5.304688 16.554688 12.882813l25.941406 102.671875c1.191406 5.078125 0 10.421875-3.234375 14.507812-3.238281 4.085938-8.167969 6.46875-13.382813 6.46875zm0 0" fill="#673ab7"/><path d="m418.132812 418.132812v17.066407c0 4.714843-3.820312 8.535156-8.53125 8.535156-4.714843 0-8.535156-3.820313-8.535156-8.535156v-17.066407zm0 0" fill="#e64c3c"/><path d="m460.800781 418.132812v17.066407c0 4.714843-3.820312 8.535156-8.535156 8.535156-4.710937 0-8.53125-3.820313-8.53125-8.535156v-17.066407zm0 0" fill="#e64c3c"/><path d="m375.464844 418.132812v17.066407c0 4.714843-3.820313 8.535156-8.53125 8.535156-4.714844 0-8.535156-3.820313-8.535156-8.535156v-17.066407zm0 0" fill="#e64c3c"/><path d="m332.800781 418.132812v17.066407c0 4.714843-3.820312 8.535156-8.535156 8.535156-4.710937 0-8.53125-3.820313-8.53125-8.535156v-17.066407zm0 0" fill="#e64c3c"/><path d="m85.332031 93.867188-8.53125 51.199218h-29.613281c-5.21875.007813-10.160156-2.371094-13.402344-6.464844-3.246094-4.09375-4.4375-9.445312-3.234375-14.527343l7.59375-30.207031zm0 0" fill="#e91e63"/><path d="m179.199219 93.867188v51.199218h-51.199219l8.535156-51.199218zm0 0" fill="#e91e63"/><path d="m230.398438 93.867188h51.203124v51.199218h-51.203124zm0 0" fill="#e91e63"/><path d="m384 145.066406h-51.199219v-51.199218h42.664063zm0 0" fill="#e91e63"/><path d="m464.8125 145.066406h-29.613281l-8.53125-51.199218h47.1875l7.59375 30.207031c1.203125 5.082031.011719 10.433593-3.234375 14.527343-3.242188 4.09375-8.183594 6.472657-13.402344 6.464844zm0 0" fill="#ad1457"/><path d="m435.199219 145.066406-8.53125-51.199218h17.492187l7.59375 30.207031c1.199219 5.066406.015625 10.40625-3.207031 14.492187-3.226563 4.089844-8.140625 6.484375-13.347656 6.5zm0 0" fill="#e91e63"/><path d="m473.855469 93.867188h-435.710938l18.347657-72.449219c1.890624-7.59375 8.726562-12.914063 16.554687-12.882813h365.90625c7.828125-.03125 14.664063 5.289063 16.554687 12.882813zm0 0" fill="#6a1b9a"/><path d="m444.246094 93.867188h-406.101563l18.347657-72.449219c1.890624-7.59375 8.726562-12.914063 16.554687-12.882813h336.296875c7.828125-.03125 14.660156 5.289063 16.554688 12.882813zm0 0" fill="#9d27b0"/><path d="m422.742188 199.9375c-3.585938 6.140625-7.339844 12.371094-10.921876 18.6875-8.707031 15.199219-14.792968 31.757812-18.007812 48.980469l-294.484375 123.5625c1.363281-3.328125 2.730469-6.570313 4.097656-9.898438 7.121094-17.238281 12.191407-35.253906 15.101563-53.675781l26.539062-11.179688 17.066406-7.082031 25.601563-10.75 17.066406-7.167969 25.597657-10.753906 17.066406-7.167968 25.601562-10.75 17.066406-7.167969 25.601563-10.753907 17.066406-7.167968 25.597657-10.75 17.066406-7.167969zm0 0" fill="#fec108"/><g fill="#c03a2b"><path d="m162.132812 309.332031v14.933594c0 4.714844-3.820312 8.535156-8.53125 8.535156-4.714843 0-8.535156-3.820312-8.535156-8.535156v-7.851563zm0 0"/><path d="m204.800781 291.414062v15.785157c0 4.714843-3.820312 8.535156-8.535156 8.535156-4.710937 0-8.53125-3.820313-8.53125-8.535156v-8.617188zm0 0"/><path d="m247.464844 273.492188v16.640624c0 4.714844-3.820313 8.535157-8.53125 8.535157-4.714844 0-8.535156-3.820313-8.535156-8.535157v-9.472656zm0 0"/><path d="m290.132812 255.574219v17.492187c0 4.714844-3.820312 8.535156-8.53125 8.535156-4.714843 0-8.535156-3.820312-8.535156-8.535156v-10.324218zm0 0"/><path d="m332.800781 237.652344v18.347656c0 4.710938-3.820312 8.535156-8.535156 8.535156-4.710937 0-8.53125-3.824218-8.53125-8.535156v-11.179688zm0 0"/><path d="m375.464844 219.734375v19.199219c0 4.710937-3.820313 8.53125-8.53125 8.53125-4.714844 0-8.535156-3.820313-8.535156-8.53125v-12.03125zm0 0"/></g><path d="m486.398438 418.132812v17.066407c0 18.851562-15.28125 34.132812-34.132813 34.132812h-153.597656c-9.414063-.027343-17.039063-7.652343-17.066407-17.066406v-17.066406c.027344-9.414063 7.652344-17.039063 17.066407-17.066407zm0 0" fill="#fec108"/><path d="m460.800781 418.132812v17.066407c0 18.851562-15.28125 34.132812-34.132812 34.132812h-128c-9.414063-.027343-17.039063-7.652343-17.066407-17.066406v-17.066406c.027344-9.414063 7.652344-17.039063 17.066407-17.066407zm0 0" fill="#ffeb3a"/><path d="m273.066406 358.398438c-4.710937 0-8.53125 3.820312-8.53125 8.535156 0 4.710937-3.824218 8.53125-8.535156 8.53125s-8.535156-3.820313-8.535156-8.53125c0-4.714844-3.820313-8.535156-8.53125-8.535156-4.714844 0-8.535156 3.820312-8.535156 8.535156 0 14.136718 11.464843 25.601562 25.601562 25.601562s25.601562-11.464844 25.601562-25.601562c0-4.714844-3.820312-8.535156-8.535156-8.535156zm0 0"/><path d="m25.601562 247.464844h78.273438c16.71875 48.019531 5.523438 96.367187-8.351562 130.5625-2.492188 6.117187-5.054688 12.21875-7.628907 18.347656-14.148437 33.703125-28.792969 68.589844-31.632812 106.453125-.179688 2.367187.636719 4.699219 2.25 6.441406 1.617187 1.742188 3.882812 2.730469 6.257812 2.730469h382.460938c2.378906.007812 4.652343-.980469 6.269531-2.71875 1.621094-1.738281 2.441406-4.074219 2.265625-6.445312-.714844-8.394532-1.964844-16.734376-3.738281-24.96875h.238281c23.554687-.027344 42.640625-19.113282 42.667969-42.667969v-34.132813c-.027344-23.550781-19.113282-42.636718-42.667969-42.667968h-42.613281c-15.695313-49.960938-12.546875-96.730469 9.574218-135.542969 3.753907-6.578125 7.601563-13.003907 11.40625-19.378907 10-16.023437 18.933594-32.683593 26.753907-49.875h7.457031c7.839844-.003906 15.25-3.59375 20.101562-9.753906 4.855469-6.15625 6.621094-14.195312 4.792969-21.820312l-29.195312-115.585938c-.957031-3.789062-4.367188-6.441406-8.277344-6.441406h-392.53125c-3.910156 0-7.320313 2.652344-8.277344 6.441406l-29.269531 115.695313c-1.792969 7.621093 0 15.640625 4.863281 21.773437 4.863281 6.132813 12.269531 9.703125 20.097657 9.691406h7.464843c3.804688 8.804688 8.074219 17.328126 12.65625 25.597657h-41.667969c-14.140624 0-25.601562 11.460937-25.601562 25.601562v17.066407c0 14.136718 11.460938 25.597656 25.601562 25.597656zm128 93.867187c4.710938 0 8.53125-3.820312 8.53125-8.53125v-14.25l25.601563-10.746093v7.929687c0 4.710937 3.820313 8.53125 8.53125 8.53125 4.714844 0 8.535156-3.820313 8.535156-8.53125v-15.089844l25.597657-10.742187v8.765625c0 4.710937 3.820312 8.53125 8.535156 8.53125 4.710937 0 8.53125-3.820313 8.53125-8.53125v-15.925781l25.601562-10.742188v9.601562c0 4.710938 3.820313 8.53125 8.535156 8.53125 4.710938 0 8.53125-3.820312 8.53125-8.53125v-16.769531l25.601563-10.742187v10.445312c0 4.710938 3.820313 8.53125 8.53125 8.53125 4.714844 0 8.535156-3.820312 8.535156-8.53125v-17.605468l25.597657-10.742188v11.277344c0 4.714844 3.820312 8.535156 8.535156 8.535156 4.710937 0 8.53125-3.820312 8.53125-8.535156v-18.4375l27.230468-11.425782c-7.46875 13.753907-12.929687 28.503907-16.210937 43.808594l-271.710937 114.054688c5.019531-13.574219 8.835937-27.566406 11.402343-41.8125l18.890625-7.945313v7.09375c0 4.710938 3.820313 8.53125 8.535156 8.53125zm145.066407 68.269531c-14.140625 0-25.601563 11.460938-25.601563 25.597657v17.066406c.03125 2.820313.535156 5.617187 1.492188 8.269531-3.746094.152344-7.5.265625-11.253906.265625-70.828126 0-135.953126-26.660156-166.492188-41.363281 2.273438-5.511719 4.550781-10.988281 6.824219-16.433594.742187-1.773437 1.46875-3.542968 2.210937-5.316406l277.648438-116.503906c-2.433594 29.996094 1.558594 60.164062 11.707031 88.496094.070313.1875.15625.386718.214844.574218 1.621093 4.753906 3.3125 9.496094 5.238281 14.207032 2.65625 6.585937 5.402344 13.140624 8.160156 19.71875.757813 1.800781 1.492188 3.621093 2.25 5.421874zm139.09375 85.332032h-363.523438c3.089844-20.433594 8.550781-40.4375 16.273438-59.605469 32.25 15.417969 99.390625 42.539063 172.792969 42.539063 9.277343 0 18.578124-.445313 27.648437-1.316407 2.488281.835938 5.089844 1.277344 7.714844 1.316407h136.011719c1.296874 5.84375 2.398437 11.554687 3.082031 17.066406zm40.105469-59.734375c0 14.140625-11.460938 25.601562-25.601563 25.601562h-153.597656c-4.714844 0-8.535157-3.820312-8.535157-8.535156v-17.066406c0-4.710938 3.820313-8.53125 8.535157-8.53125h17.066406v8.53125c0 4.714843 3.820313 8.535156 8.53125 8.535156 4.714844 0 8.535156-3.820313 8.535156-8.535156v-8.53125h25.597657v8.53125c0 4.714843 3.820312 8.535156 8.535156 8.535156 4.710937 0 8.53125-3.820313 8.53125-8.535156v-8.53125h25.601562v8.53125c0 4.714843 3.820313 8.535156 8.535156 8.535156 4.710938 0 8.53125-3.820313 8.53125-8.535156v-8.53125h25.601563v8.53125c0 4.714843 3.820313 8.535156 8.53125 8.535156 4.714844 0 8.535156-3.820313 8.535156-8.535156v-8.53125h17.066407zm0-34.132813v8.535156h-48.316407c-1.65625-4.011718-3.320312-8.03125-4.992187-12.023437-2.722656-6.496094-5.445313-12.988281-8.082032-19.542969-.347656-.851562-.613281-1.707031-.945312-2.558594h36.734375c14.136719 0 25.597656 11.453126 25.601563 25.589844zm-187.734376-264.53125v-34.136718h34.132813v34.136718zm-51.199218 0v-34.136718h34.132812v34.136718zm-51.199219 0v-34.136718h34.132813v34.136718zm-49.664063 0 5.691407-34.136718h26.90625v34.136718zm-51.199218 0 5.691406-34.136718h33.902344l-5.691406 34.136718zm254.460937-34.136718h26.90625l5.691407 34.136718h-32.597657zm49.894531 34.136718-5.691406-34.136718h33.902344l5.691406 34.136718zm80.316407-3.234375c-1.617188 2.042969-4.082031 3.234375-6.691407 3.234375h-22.421874l-5.695313-34.136718h30.449219l5.972656 23.648437c.597656 2.535156.003906 5.207031-1.613281 7.253906zm-405.171875-116.234375h379.257812l17.246094 68.265625h-413.75zm-25.914063 116.234375c-1.601562-2-2.207031-4.617187-1.648437-7.117187l6.007812-23.785156h30.449219l-5.691406 34.136718h-22.425781c-2.609376 0-5.074219-1.191406-6.691407-3.234375zm398.285157 20.300781c-6.332032 13.429688-13.867188 26.238282-21.804688 39.515626l-53.117188 22.296874-.386718.164063-42.359375 17.773437-.246094.09375-42.496094 17.835938-.101562.042969-149.480469 62.703125c2.417969-26.523438-1.316406-53.242188-10.90625-78.089844-.074219-.1875-.125-.375-.210938-.5625-2.851562-7.226562-6.207031-14.246094-10.042968-21-3.808594-6.683594-7.679688-13.210938-11.582032-19.6875-8.285156-13.832031-16.160156-27.109375-22.75-41.085938zm-421.675782 51.199219c0-4.714843 3.820313-8.535156 8.535156-8.535156h17.066407v8.535156c0 4.710938 3.820312 8.53125 8.53125 8.53125 4.714843 0 8.535156-3.820312 8.535156-8.53125v-8.535156h17.355469c1.425781 2.40625 2.851562 4.832031 4.265625 7.210937 3.808593 6.375 7.679687 12.800782 11.410156 19.378907 1.433594 2.5 2.671875 5.027343 3.917969 7.542969h-71.082032c-4.714843 0-8.535156-3.820313-8.535156-8.53125zm0 0"/></svg>